<svg width="24" height="24" viewBox="0 0 24 24" fill="none" xmlns="http://www.w3.org/2000/svg">
	<path
		d="M19 7H5C4.46957 7 3.96086 7.21071 3.58579 7.58579C3.21071 7.96086 3 8.46957 3 9V18C3 18.5304 3.21071 19.0391 3.58579 19.4142C3.96086 19.7893 4.46957 20 5 20H19C19.5304 20 20.0391 19.7893 20.4142 19.4142C20.7893 19.0391 21 18.5304 21 18V9C21 8.46957 20.7893 7.96086 20.4142 7.58579C20.0391 7.21071 19.5304 7 19 7ZM9.316 14.316L10.918 15.716C11.223 15.982 11.609 16.114 12 16.114C12.391 16.114 12.777 15.981 13.082 15.716L14.684 14.316L14.647 14.353L18.293 17.999H5.707L9.353 14.353L9.316 14.316ZM5 17.293V10.54L8.602 13.691L5 17.293ZM15.398 13.691L19 10.54V17.29L15.398 13.691ZM19 9V9.21L12.424 14.964C12.3036 15.0601 12.1541 15.1124 12 15.1124C11.8459 15.1124 11.6964 15.0601 11.576 14.964L5 9.21V9H19Z"
		fill="currentColor" />
</svg>
