<svg width="24" height="24" viewBox="0 0 24 24" fill="none" xmlns="http://www.w3.org/2000/svg">
	<path fill-rule="evenodd" clip-rule="evenodd"
		d="M21.7979 6.34314L17.6569 21.798L2.20203 17.6569L6.3431 2.20206L21.7979 6.34314ZM14.8631 14.8377C14.0629 14.6233 13.2404 15.0982 13.026 15.8984C12.8116 16.6986 13.2864 17.5211 14.0866 17.7355C14.8868 17.9499 15.7093 17.4751 15.9237 16.6749C16.1382 15.8747 15.6633 15.0521 14.8631 14.8377ZM12.3882 10.5511C11.588 10.3367 10.7655 10.8116 10.5511 11.6118C10.3367 12.4119 10.8116 13.2345 11.6118 13.4489C12.412 13.6633 13.2344 13.1884 13.4489 12.3882C13.6633 11.5881 13.1884 10.7656 12.3882 10.5511ZM9.91334 6.26453C9.11314 6.05012 8.29062 6.52496 8.07621 7.32517C7.86181 8.12537 8.3367 8.94789 9.13685 9.16229C9.93706 9.3767 10.7596 8.90185 10.974 8.10165C11.1884 7.30145 10.7135 6.47893 9.91334 6.26453Z"
		fill="currentColor" />
</svg>
