<svg width="24" height="24" viewBox="0 0 24 24" fill="none" xmlns="http://www.w3.org/2000/svg">
	<path
		d="M4.75 2.75C4.21957 2.75 3.71086 2.96071 3.33579 3.33579C2.96071 3.71086 2.75 4.21957 2.75 4.75V9.0265C2.75 9.55693 2.96071 10.0656 3.33579 10.4407C3.71086 10.8158 4.21957 11.0265 4.75 11.0265H9.0265C9.55693 11.0265 10.0656 10.8158 10.4407 10.4407C10.8158 10.0656 11.0265 9.55693 11.0265 9.0265V4.75C11.0265 4.21957 10.8158 3.71086 10.4407 3.33579C10.0656 2.96071 9.55693 2.75 9.0265 2.75H4.75ZM14.9735 12.9735C14.4431 12.9735 13.9344 13.1842 13.5593 13.5593C13.1842 13.9344 12.9735 14.4431 12.9735 14.9735V19.25C12.9735 19.7804 13.1842 20.2891 13.5593 20.6642C13.9344 21.0393 14.4431 21.25 14.9735 21.25H19.25C19.7804 21.25 20.2891 21.0393 20.6642 20.6642C21.0393 20.2891 21.25 19.7804 21.25 19.25V14.9735C21.25 14.4431 21.0393 13.9344 20.6642 13.5593C20.2891 13.1842 19.7804 12.9735 19.25 12.9735H14.9735Z"
		stroke="currentColor" stroke-width="0.5" stroke-linecap="round" stroke-linejoin="round" />
	<path
		d="M19.25 2.75H14.9735C13.8689 2.75 12.9735 3.64543 12.9735 4.75V9.0265C12.9735 10.1311 13.8689 11.0265 14.9735 11.0265H19.25C20.3546 11.0265 21.25 10.1311 21.25 9.0265V4.75C21.25 3.64543 20.3546 2.75 19.25 2.75Z"
		stroke="currentColor" stroke-width="0.5" stroke-linecap="round" stroke-linejoin="round" />
	<path
		d="M9.0265 12.9735H4.75C3.64543 12.9735 2.75 13.8689 2.75 14.9735V19.25C2.75 20.3546 3.64543 21.25 4.75 21.25H9.0265C10.1311 21.25 11.0265 20.3546 11.0265 19.25V14.9735C11.0265 13.8689 10.1311 12.9735 9.0265 12.9735Z"
		stroke="currentColor" stroke-width="0.5" stroke-linecap="round" stroke-linejoin="round" />
	<path
		d="M6.88801 14.399V19.754M4.21051 17.0765H9.56601M8.71251 5.098L4.88451 8.843M4.92601 5.0565L8.67101 8.8845M14.434 7.0105H19.7895M14.348 17.025H19.7035"
		stroke="currentColor" stroke-width="0.5" stroke-linecap="round" stroke-linejoin="round" />
	<path
		d="M17.0545 5.9785C17.3511 5.9785 17.5915 5.73807 17.5915 5.4415C17.5915 5.14492 17.3511 4.9045 17.0545 4.9045C16.7579 4.9045 16.5175 5.14492 16.5175 5.4415C16.5175 5.73807 16.7579 5.9785 17.0545 5.9785Z"
		stroke="currentColor" stroke-width="0.5" stroke-linecap="round" stroke-linejoin="round" />
	<path
		d="M17.104 9.2115C17.4006 9.2115 17.641 8.97107 17.641 8.6745C17.641 8.37792 17.4006 8.1375 17.104 8.1375C16.8074 8.1375 16.567 8.37792 16.567 8.6745C16.567 8.97107 16.8074 9.2115 17.104 9.2115Z"
		stroke="currentColor" stroke-width="0.5" stroke-linecap="round" stroke-linejoin="round" />
</svg>
