<svg xmlns="http://www.w3.org/2000/svg" version="1.1" xmlns:xlink="http://www.w3.org/1999/xlink" xmlns:svgjs="http://svgjs.dev/svgjs" width="100%" height="100%" viewBox="0 0 1000 600"><rect width="1000" height="600" x="0" y="0" fill="#4a7da4"/><g><rect width="333.3333333333333" height="333.3333333333333" rx="13.333333333333334" ry="13.333333333333334" y="213.10377466330925" fill="#ffffff" transform="matrix(0.6548563717929997,0,0,0.6548563717929996,0,51.30490382957947)" x="190.88154602050778"/><path d="M325.8206998786036 306.4277513381952L325.8206998786036 306.4277513381952L344.07912632317004 306.4277513381952L291.0454199734138 452.49516289472734L273.26452160508984 452.49516289472734L220.42744446319804 306.4277513381952L238.71396079460234 306.4277513381952L271.185869979093 399.06819812924203Q277.5060945175968 417.1299953659439 282.1690157326707 433.1412308634869L282.1690157326707 433.1412308634869Q283.629689848236 425.7255007383091 293.20834125992394 398.7592093740263L293.20834125992394 398.7592093740263Q308.6296891338733 354.6299971518509 325.8206998786036 306.4277513381952ZM360.56788989695553 344.15246936135344L377.1690130180922 344.15246936135344L377.1690130180922 452.49516289472734L360.56788989695553 452.49516289472734L360.56788989695553 344.15246936135344ZM360.56788989695553 304.77044801476535L377.1690130180922 304.77044801476535L377.1690130180922 324.3210092538704L360.56788989695553 324.3210092538704L360.56788989695553 304.77044801476535ZM470.62406652743493 364.15246878986324Q463.3768757232839 355.5288735306603 450.7364266462763 355.5288735306603Q438.0959775692688 355.5288735306603 430.09035982049727 364.461457545079Q422.0847420717258 373.3940415594977 420.70833761667393 388.89965909396034L420.70833761667393 388.89965909396034L477.8993472184237 388.89965909396034Q477.8993472184237 372.804153935904 470.62406652743493 364.15246878986324ZM453.99485351946055 454.77044372858876L453.99485351946055 454.77044372858876Q430.399348575713 454.77044372858876 416.80384334622045 439.7423542703686Q403.2364280035656 424.7423546989863 403.2364280035656 398.67493971351286L403.2364280035656 398.67493971351286Q403.2364280035656 373.4783112200111 416.3544051568157 357.83224425135944Q429.5004721969036 342.1861772827078 450.9330558541409 341.877188527492L450.9330558541409 341.877188527492Q471.0735047168397 341.877188527492 482.87125718871346 355.6693229648493Q494.6690096605871 369.4333675153686 494.6690096605871 392.4389848355225L494.6690096605871 392.4389848355225Q494.6690096605871 393.64684996954765 494.6409197737494 396.7929172953806Q494.5847400000738 399.96707450805144 494.5847400000738 401.34347896310334L494.5847400000738 401.34347896310334L420.2308095404313 401.34347896310334Q420.51170840880934 419.7985346155344 429.7532811784438 430.1356129718428Q438.99485394807823 440.4446014413135 454.5847411430542 440.4446014413135L454.5847411430542 440.4446014413135Q471.7757518877845 440.4446014413135 489.05103229302824 431.3715679927058L489.05103229302824 431.3715679927058L491.60721199526756 444.6861743538205Q475.11844842148207 454.77044372858876 453.99485351946055 454.77044372858876Z " fill="#0b5d87" transform="matrix(0.6548563717929997,0,0,0.6548563717929996,0,51.30490382957947)"/><path d="M668.0926729624451 411.1505811928569L655.5575016477657 411.1505811928569L621.8771423578188 332.81631196711595L619.0493427683119 325.3036503711127L619.5769173185931 352.1677464714275L619.5769173185931 417.90353543645523L607.5482175721835 417.90353543645523L607.5482175721835 308.1680289779819L624.1773673970446 308.1680289779819L662.3737648373977 395.57658046855823L700.2114115835599 308.1680289779819L716.3973987861847 308.1680289779819L716.3973987861847 417.90353543645523L703.9255364175389 417.90353543645523L703.9255364175389 351.87230472327L704.4531109678201 325.62019510128147L701.7097233063582 333.11175371527344L668.0926729624451 411.1505811928569ZM761.7899130923723 417.31265194014037L729.5867625432127 336.5093338190838L742.7339203362183 336.5093338190838L768.3951464618921 404.2499060751798L791.2496759800703 336.5093338190838L804.3757307910645 336.5093338190838Q771.4339758715113 427.1677445393918 770.3366208069266 429.99554412889864L770.3366208069266 429.99554412889864Q765.2085961781941 442.8261571917355 757.9280673843145 448.79830110091774Q750.6686415724463 454.7704450101001 738.7876627001154 454.7704450101001L738.7876627001154 454.7704450101001Q735.2423617222263 454.7704450101001 731.2961040861236 454.17956151378525L731.2961040861236 454.17956151378525L730.5574997157299 443.64917349017406Q734.7147871719452 443.94461523833144 736.7828794090472 443.94461523833144L736.7828794090472 443.94461523833144Q745.1818662495226 443.94461523833144 749.5079775618278 440.8635798646897Q753.8551918561443 437.782544491048 757.273874941966 429.32024870453876L757.273874941966 429.32024870453876Q760.3127043515852 421.5332483423894 761.7899130923723 417.31265194014037L761.7899130923723 417.31265194014037ZM812.1627311532139 410.47528576849703L816.0245768612717 399.79717687080716Q833.1601982544025 408.2594726573164 852.7437655608378 408.2594726573164L852.7437655608378 408.2594726573164Q876.8644739996906 408.2594726573164 876.8644739996906 386.29126838361043L876.8644739996906 386.29126838361043Q876.8644739996906 379.179563445821 873.0448342556554 374.76904020547073Q869.2251945116201 370.33741398310934 859.137969110245 367.8261591237712L859.137969110245 367.8261591237712L837.3174857106178 362.33938380084754Q812.3104520272926 356.0295921794853 812.3104520272926 335.62300857461156L812.3104520272926 335.62300857461156Q812.3104520272926 319.96459592226785 823.0729728530274 312.3675223982197Q833.8354936787624 304.7704488741715 852.8281774888827 304.7704488741715L852.8281774888827 304.7704488741715Q862.767682016179 304.7704488741715 871.4410076228007 306.9229530393185Q880.1354362114336 309.07545720446547 885.9809622285485 312.7051701103996L885.9809622285485 312.7051701103996L882.2879403765807 323.172249187977Q877.3076366219268 320.4077585445039 869.1196796015638 318.2763573613682Q860.9106195991895 316.1238531962212 852.5327357407253 316.1238531962212L852.5327357407253 316.1238531962212Q825.6686396404106 316.1238531962212 825.6686396404106 334.7366833301392L825.6686396404106 334.7366833301392Q825.6686396404106 341.04647495150147 829.7837211326033 344.86611469553674Q833.8988026247961 348.6857544395721 842.1500685911928 350.6905377306403L842.1500685911928 350.6905377306403L862.9998148183028 355.7341504313279Q876.3368994494095 358.9207007150258 883.2375745670867 365.9268907427591Q890.1382496847638 372.95418375250364 890.1382496847638 385.84810576137426L890.1382496847638 385.84810576137426Q890.1382496847638 402.62497646031403 879.8610974452874 411.1083752288344Q869.5839452058112 419.61287697936615 851.9418522444105 419.61287697936615L851.9418522444105 419.61287697936615Q838.7313855053711 419.61287697936615 828.4542332658949 416.9116952819268Q818.1770810264187 414.18941060247613 812.1627311532139 410.47528576849703L812.1627311532139 410.47528576849703ZM998.9874308987647 443.8602033102865L990.2296933640981 452.7656617190318Q986.6632894041978 449.22036074114266 978.4331264198123 438.26791307730656Q970.2029634354268 427.31546541347046 966.1089849252453 418.8742726089725L966.1089849252453 418.8742726089725Q961.5085348467939 419.5284650513211 956.6126430201851 419.5284650513211L956.6126430201851 419.5284650513211Q940.0045961773353 419.5284650513211 928.165823269027 412.45896607755407Q916.3270503607185 405.36836412177587 910.4393183795813 392.70657491502885Q904.5304834164327 380.0658886902932 904.5304834164327 362.99357624319606L904.5304834164327 362.99357624319606Q904.5304834164327 336.6570546931625 918.2685247057531 321.4629076450662Q931.9854630130623 306.24765761495865 956.6970549482301 306.24765761495865L956.6970549482301 306.24765761495865Q981.0287932071955 306.24765761495865 994.787937478527 321.5684225551225Q1008.5470817498586 336.8891874952862 1008.5470817498586 363.0779881712411L1008.5470817498586 363.0779881712411Q1008.5470817498586 382.13398092739516 1000.7600813877093 395.9142281807381Q992.97308102556 409.6733724520698 978.4331264198123 415.60331039722956L978.4331264198123 415.60331039722956Q979.614893412442 417.6714026343316 981.7040886315552 421.0478797561307Q983.7721808686573 424.42435687792994 989.2167502275584 432.04253338398934Q994.6824225684708 439.6396069080375 998.9874308987647 443.8602033102865L998.9874308987647 443.8602033102865ZM927.912587484892 396.27297887492927Q937.6199592100646 408.32278160335005 956.6126430201851 408.32278160335005Q975.6053268303054 408.32278160335005 985.2282866274331 396.3151848389518Q994.8301434425496 384.28648509254214 994.8301434425496 363.0779881712411L994.8301434425496 363.0779881712411Q994.8301434425496 341.4052256456926 985.1438746993882 329.460937827328Q975.4576059562268 317.5166500089634 956.6970549482301 317.5166500089634Q937.9154009582221 317.5166500089634 928.0603083589707 329.460937827328Q918.1841127777082 341.4052256456926 918.1841127777082 363.0779881712411L918.1841127777082 363.0779881712411Q918.1841127777082 384.2231761465085 927.912587484892 396.27297887492927ZM1090.5321668635452 417.90353543645523L1029.7766816531712 417.90353543645523L1029.7766816531712 308.1680289779819L1042.6706036620417 308.1680289779819L1042.6706036620417 406.4868221683718L1090.9753294857815 406.4868221683718L1090.5321668635452 417.90353543645523ZM1209.2997496228313 308.1680289779819L1209.2997496228313 308.1680289779819L1223.0377909121516 308.1680289779819L1183.1953608749213 417.90353543645523L1169.8371732618034 417.90353543645523L1130.1424640986515 308.1680289779819L1143.8805053879723 308.1680289779819L1168.2755525929715 377.76566365106754Q1173.0237235455015 391.33488108429793 1176.5268185593682 403.3635808307076L1176.5268185593682 403.3635808307076Q1177.6241736239526 397.79239357973887 1184.820290489787 377.5335308489438L1184.820290489787 377.5335308489438Q1196.4058276139608 344.38074610927816 1209.2997496228313 308.1680289779819ZM1235.4252413527524 336.5093338190838L1247.8971037213978 336.5093338190838L1247.8971037213978 417.90353543645523L1235.4252413527524 417.90353543645523L1235.4252413527524 336.5093338190838ZM1235.4252413527524 306.9229530393185L1247.8971037213978 306.9229530393185L1247.8971037213978 321.6106285191449L1235.4252413527524 321.6106285191449L1235.4252413527524 306.9229530393185ZM1318.10672487281 351.53465701109013Q1312.6621555139086 345.05604153363794 1303.1658136088486 345.05604153363794Q1293.669471703788 345.05604153363794 1287.6551218305835 351.76678981321385Q1281.6407719573785 358.47753809278976 1280.6067258388275 370.1263841629969L1280.6067258388275 370.1263841629969L1323.572397213722 370.1263841629969Q1323.572397213722 358.0343754705536 1318.10672487281 351.53465701109013ZM1305.6137595221526 419.61287697936615L1305.6137595221526 419.61287697936615Q1287.887254632707 419.61287697936615 1277.6734113392645 408.32278160335005Q1267.4806710278335 397.0537892093453 1267.4806710278335 377.47022190291005L1267.4806710278335 377.47022190291005Q1267.4806710278335 358.5408470388234 1277.3357636270848 346.78648605856Q1287.2119592083473 335.0321250782967 1303.313534482927 334.799992276173L1303.313534482927 334.799992276173Q1318.4443725849897 334.799992276173 1327.3076250297127 345.1615564436942Q1336.1708774744352 355.5020176292042 1336.1708774744352 372.7853598964137L1336.1708774744352 372.7853598964137Q1336.1708774744352 373.6927881228973 1336.128671510413 376.05632210815673Q1336.1075685284018 378.4409590754273 1336.1075685284018 379.47500519397835L1336.1075685284018 379.47500519397835L1280.226872162625 379.47500519397835Q1280.459004964749 393.3396643753662 1287.4018860464485 401.1055617555043Q1294.3236641461367 408.85035615363125 1306.0569221443889 408.85035615363125L1306.0569221443889 408.85035615363125Q1318.971947135271 408.85035615363125 1331.9502810721865 402.03409296399917L1331.9502810721865 402.03409296399917L1333.8706524352096 412.03690643732915Q1321.4832019946089 419.61287697936615 1305.6137595221526 419.61287697936615Z " fill="#f89b22" transform="matrix(0.6548563717929997,0,0,0.6548563717929996,0,51.30490382957947)"/></g></svg>