<svg xmlns="http://www.w3.org/2000/svg" version="1.1" xmlns:xlink="http://www.w3.org/1999/xlink" xmlns:svgjs="http://svgjs.dev/svgjs" width="100%" height="100%" viewBox="0 0 1000 600"><rect width="1000" height="600" x="0" y="0" fill="#51cddb"/><g><rect width="333.3333333333333" height="333.3333333333333" rx="13.333333333333334" ry="13.333333333333334" y="186.43719223611055" fill="#292826" transform="matrix(0.7611973694089347,0,0,0.7611973694089348,0,31.218275403665103)" x="164.2149200439453"/><path d="M290.2642592130978 295.33465717813704L308.44209140669386 295.33465717813704L266.77250212354454 425.8414958357784L247.46348789764073 425.8414958357784L205.39930023112822 295.33465717813704L224.7346210159229 295.33465717813704L257.4862868350649 406.3220291387476L290.2642592130978 295.33465717813704ZM327.5669597203615 326.03441140379067L345.0082082650131 326.03441140379067L345.0082082650131 425.8414958357784L327.5669597203615 425.8414958357784L327.5669597203615 326.03441140379067ZM336.09028480100574 278.1038611046125Q341.588355609199 278.1038611046125 345.0082082650131 281.5237137604266Q348.4017543619362 284.9172598573497 348.4017543619362 290.04703884107073L348.4017543619362 290.04703884107073Q348.4017543619362 295.15051126590095 345.0082082650131 298.4651376861514Q341.588355609199 301.77976410640196 336.09028480100574 301.77976410640196L336.09028480100574 301.77976410640196Q330.80266646393943 301.77976410640196 327.3828138081254 298.4651376861514Q323.9629611523113 295.15051126590095 323.9629611523113 290.04703884107073L323.9629611523113 290.04703884107073Q323.9629611523113 284.9172598573497 327.3828138081254 281.5237137604266Q330.80266646393943 278.1038611046125 336.09028480100574 278.1038611046125L336.09028480100574 278.1038611046125ZM456.3638720500959 372.9916190240063Q456.3638720500959 377.3585077998919 455.9955802256236 381.90954248801364L455.9955802256236 381.90954248801364L392.36001426859184 381.90954248801364Q393.49119630089956 398.37744835370273 400.672886878109 406.1378832265114Q407.88088401420936 413.8983180993202 419.2453174550683 413.8983180993202L419.2453174550683 413.8983180993202Q426.4533145911686 413.8983180993202 432.5038231360703 411.82009994694084Q438.55433168097204 409.7418817945616 445.1835845214731 405.1908471064399L445.1835845214731 405.1908471064399L452.7598734820457 415.60824442722725Q436.87071191195594 428.10385990039384 417.92998951052436 428.10385990039384L417.92998951052436 428.10385990039384Q397.0951948689497 428.10385990039384 385.4413892802912 414.4770623949195Q373.78758369163256 400.8502648894451 373.78758369163256 376.9639094165287L373.78758369163256 376.9639094165287Q373.78758369163256 361.4430396709112 378.81213643979015 349.4209422577804Q383.8366891879477 337.39884484464955 393.2018241530999 330.55913953302155Q402.56695911825216 323.7457407802843 415.2730270625458 323.7457407802843L415.2730270625458 323.7457407802843Q435.1607855840489 323.7457407802843 445.76232881707233 336.8201005490502Q456.3638720500959 349.89446031781614 456.3638720500959 372.9916190240063L456.3638720500959 372.9916190240063ZM439.1330759765714 369.0193286314838L439.1330759765714 367.8881465991761Q439.1330759765714 353.1038605025032 433.26671334390574 345.3434256296944Q427.4003507112401 337.58299075688575 415.6413188870181 337.58299075688575L415.6413188870181 337.58299075688575Q394.254086508735 337.58299075688575 392.36001426859184 369.0193286314838L392.36001426859184 369.0193286314838L439.1330759765714 369.0193286314838Z " fill="#ffffff" transform="matrix(0.7611973694089347,0,0,0.7611973694089348,0,31.218275403665103)"/><path d="M614.4168864335677 292.9857158996755L614.4168864335677 390.0017765733573Q614.4168864335677 406.6785420381072 607.1463619802707 415.01692477048226Q599.8531171380571 423.3780278917738 584.9712623977148 428.10386878641685L584.9712623977148 428.10386878641685L580.8815923927352 416.83455588380644Q588.4020411241144 413.8809053246545 592.1736256842621 410.45012659825505Q595.9224898554935 407.0193478718555 597.3993151350694 402.1117438658801Q598.8761404146453 397.2041398599046 598.8761404146453 389.3428852947772L598.8761404146453 389.3428852947772L598.8761404146453 292.9857158996755L614.4168864335677 292.9857158996755ZM703.5716925421222 385.57130073462935Q703.5716925421222 390.8197105743531 705.3666032665298 393.34167374409054Q707.1615139909375 395.88635730274456 710.7740558286695 397.2041398599046L710.7740558286695 397.2041398599046L707.3432771022699 407.655518761519Q700.6180419829702 406.83758476052316 696.5283719779907 403.9066545902877Q692.4387019730111 400.9530040311359 690.4847485261876 394.7503378569168L690.4847485261876 394.7503378569168Q681.8055599600642 407.655518761519 664.8107090504825 407.655518761519L664.8107090504825 407.655518761519Q652.0418504793796 407.655518761519 644.6804444704164 400.47587586388823Q637.3190384614531 393.2735125773409 637.3190384614531 381.6633938409822L637.3190384614531 381.6633938409822Q637.3190384614531 367.91755854646766 647.2251280290703 360.5561525375044Q657.1084972077709 353.1947465285412 675.2620879520969 353.1947465285412L675.2620879520969 353.1947465285412L688.530795079364 353.1947465285412L688.530795079364 346.8103172429898Q688.530795079364 337.6540005096189 684.100319240636 333.7233732270552Q679.6925637908248 329.7927459444915 670.5362470574539 329.7927459444915L670.5362470574539 329.7927459444915Q661.0391244903346 329.7927459444915 647.2932891958201 334.3822645056352L647.2932891958201 334.3822645056352L643.5444250245887 323.40831665894Q659.5622992107587 317.52373592955286 673.3081345052733 317.52373592955286L673.3081345052733 317.52373592955286Q688.530795079364 317.52373592955286 696.051243810743 324.97602349418224Q703.5716925421222 332.40559066989516 703.5716925421222 346.1514259644097L703.5716925421222 346.1514259644097L703.5716925421222 385.57130073462935ZM668.241487776882 396.3862058589087Q681.1693890704007 396.3862058589087 688.530795079364 382.9584560092258L688.530795079364 382.9584560092258L688.530795079364 363.168997262908L677.238761787837 363.168997262908Q653.3596330365397 363.168997262908 653.3596330365397 380.8454598399863L653.3596330365397 380.8454598399863Q653.3596330365397 388.52495129378127 657.1084972077709 392.455578576345Q660.8800817679188 396.3862058589087 668.241487776882 396.3862058589087L668.241487776882 396.3862058589087ZM781.9343139153139 319.5004097652929L797.7931453790679 319.5004097652929L768.5065640656309 405.7015653146954L750.352973321305 405.7015653146954L720.5892638406203 319.5004097652929L736.9479438605387 319.5004097652929L759.5092900546758 392.29653585392913L781.9343139153139 319.5004097652929ZM873.0430734706918 385.57130073462935Q873.0430734706918 390.8197105743531 874.8379841950996 393.34167374409054Q876.6556153084238 395.88635730274456 880.2454367572392 397.2041398599046L880.2454367572392 397.2041398599046L876.8146580308396 407.655518761519Q870.1121433004564 406.83758476052316 866.0224732954769 403.9066545902877Q861.9328032904973 400.9530040311359 859.9561294547572 394.7503378569168L859.9561294547572 394.7503378569168Q851.2996612775505 407.655518761519 834.2820899790522 407.655518761519L834.2820899790522 407.655518761519Q821.5132314079493 407.655518761519 814.1518253989861 400.47587586388823Q806.7904193900229 393.2735125773409 806.7904193900229 381.6633938409822L806.7904193900229 381.6633938409822Q806.7904193900229 367.91755854646766 816.69650895764 360.5561525375044Q826.5798781363407 353.1947465285412 844.7561892695832 353.1947465285412L844.7561892695832 353.1947465285412L858.0021760079337 353.1947465285412L858.0021760079337 346.8103172429898Q858.0021760079337 337.6540005096189 853.5717001692058 333.7233732270552Q849.1639447193945 329.7927459444915 840.0076279860236 329.7927459444915L840.0076279860236 329.7927459444915Q830.5105054189044 329.7927459444915 816.7646701243898 334.3822645056352L816.7646701243898 334.3822645056352L813.0158059531584 323.40831665894Q829.0336801393285 317.52373592955286 842.779515433843 317.52373592955286L842.779515433843 317.52373592955286Q858.0021760079337 317.52373592955286 865.5226247393127 324.97602349418224Q873.0430734706918 332.40559066989516 873.0430734706918 346.1514259644097L873.0430734706918 346.1514259644097L873.0430734706918 385.57130073462935ZM837.7128687054517 396.3862058589087Q850.6407699989704 396.3862058589087 858.0021760079337 382.9584560092258L858.0021760079337 382.9584560092258L858.0021760079337 363.168997262908L846.7101427164068 363.168997262908Q822.8310139651094 363.168997262908 822.8310139651094 380.8454598399863L822.8310139651094 380.8454598399863Q822.8310139651094 388.52495129378127 826.5798781363407 392.455578576345Q830.3514626964885 396.3862058589087 837.7128687054517 396.3862058589087L837.7128687054517 396.3862058589087ZM1006.0482301881938 292.9857158996755L1021.748018929532 292.9857158996755L985.7589228857119 405.7015653146954L969.0821574209618 405.7015653146954L932.7522555433934 292.9857158996755L949.45174139706 292.9857158996755L977.7386255981685 388.8430367386131L1006.0482301881938 292.9857158996755ZM1038.2657416718662 319.5004097652929L1053.329359523541 319.5004097652929L1053.329359523541 405.7015653146954L1038.2657416718662 405.7015653146954L1038.2657416718662 319.5004097652929ZM1045.6271476808292 278.1038611593332Q1050.3757089643889 278.1038611593332 1053.329359523541 281.0575117184851Q1056.2602896937763 283.98844188872044 1056.2602896937763 288.4189177274483L1056.2602896937763 288.4189177274483Q1056.2602896937763 292.8266731772596 1053.329359523541 295.68944218074523Q1050.3757089643889 298.55221118423094 1045.6271476808292 298.55221118423094L1045.6271476808292 298.55221118423094Q1041.060349508602 298.55221118423094 1038.1066989494502 295.68944218074523Q1035.1530483902984 292.8266731772596 1035.1530483902984 288.4189177274483L1035.1530483902984 288.4189177274483Q1035.1530483902984 283.98844188872044 1038.1066989494502 281.0575117184851Q1041.060349508602 278.1038611593332 1045.6271476808292 278.1038611593332L1045.6271476808292 278.1038611593332ZM1149.5047658073102 360.05630398134025Q1149.5047658073102 363.8278885414881 1149.1866803624785 367.7585158240517L1149.1866803624785 367.7585158240517L1094.2260595733364 367.7585158240517Q1095.203036296748 381.98147928581403 1101.4057024709673 388.6839940161971Q1107.6310890341028 395.3865087465803 1117.4462970460538 395.3865087465803L1117.4462970460538 395.3865087465803Q1123.6716836091891 395.3865087465803 1128.8973730599964 393.5915980221726Q1134.1230625108037 391.7966872977649 1139.8486005177751 387.8660600152013L1139.8486005177751 387.8660600152013L1146.3920725257424 396.86333402615634Q1132.6689576201443 407.655518761519 1116.310277600226 407.655518761519L1116.310277600226 407.655518761519Q1098.315729578316 407.655518761519 1088.250597288283 395.88635730274456Q1078.18546499825 384.11719584397 1078.18546499825 363.4870827077397L1078.18546499825 363.4870827077397Q1078.18546499825 350.08205324697343 1082.5250592813115 339.6988355121087Q1086.8646535643732 329.31561777724386 1094.9531120186662 323.40831665894Q1103.041570472959 317.52373592955286 1114.0155183196543 317.52373592955286L1114.0155183196543 317.52373592955286Q1131.1921323405682 317.52373592955286 1140.3484490739393 328.81576922107973Q1149.5047658073102 340.1078025126066 1149.5047658073102 360.05630398134025L1149.5047658073102 360.05630398134025ZM1134.6229110669678 356.62552525494067L1134.6229110669678 355.6485485315289Q1134.6229110669678 342.8796899604261 1129.5562643385765 336.1771752300429Q1124.4896176101852 329.4746604996597 1114.3336037644858 329.4746604996597L1114.3336037644858 329.4746604996597Q1095.861927575328 329.4746604996597 1094.2260595733364 356.62552525494067L1094.2260595733364 356.62552525494067L1134.6229110669678 356.62552525494067Z " fill="#292826" transform="matrix(0.7611973694089347,0,0,0.7611973694089348,0,31.218275403665103)"/></g></svg>