<svg xmlns="http://www.w3.org/2000/svg" version="1.1" xmlns:xlink="http://www.w3.org/1999/xlink"
    xmlns:svgjs="http://svgjs.dev/svgjs" width="100%" height="100%" viewBox="0 0 1000 600">
    <rect width="1000" height="600" x="0" y="0" fill="#51cddb" />
    <g>
        <rect width="333.3333333333333" height="333.3333333333333" rx="13.333333333333334" ry="13.333333333333334"
            y="183.19536321577306" fill="#292826"
            transform="matrix(0.7765269453206984,0,0,0.7765269453206984,0,28.322687510742327)" x="160.97312927246094" />
        <path
            d="M242.6800148855204 424.21470775466713L242.6800148855204 424.21470775466713Q235.0593804142057 403.67724497096964 227.32105274642282 383.63997827226194Q219.61214837775702 363.63213487267126 212.40344009408096 345.4191127192203Q205.1947318104049 327.20609056576944 198.83929920112314 312.582710904598L198.83929920112314 312.582710904598Q194.39638103444935 302.1962863162811 191.83655401126643 297.10605556903226Q189.30615028720052 292.01582482178344 186.98170965695397 290.3386967721119Q184.6572690267074 288.63214542332327 180.83224014149155 288.2202192356846L180.83224014149155 288.2202192356846Q180.18492756091655 285.66039221250173 179.97896446709723 283.247681684904Q179.7730013732779 280.80554785818924 179.7730013732779 279.09899650940065L179.7730013732779 279.09899650940065Q181.89147890970517 279.30495960321997 184.86323212052673 279.42265279968814Q187.8349853313483 279.54034599615636 191.3069346271596 279.62861589350746Q194.808307222088 279.7463090899756 198.42737301348453 279.7463090899756Q202.01701550576402 279.7463090899756 205.40069490422422 279.7463090899756L205.40069490422422 279.7463090899756Q212.19747700026164 279.7463090899756 218.6411795068945 279.54034599615636Q225.11430531264443 279.30495960321997 231.0283884351705 279.09899650940065L231.0283884351705 279.09899650940065Q231.0283884351705 281.01151095200856 230.73415544400007 283.45364477872334Q230.41049915371258 285.89577860543807 229.96914966695687 288.2202192356846L229.96914966695687 288.2202192356846Q222.9958277762172 288.63214542332327 219.61214837775702 290.426966669463Q216.19904568017978 292.25121121471983 216.7286650642866 297.01778567168117Q217.2582844483934 301.78436012864245 221.4952395212479 311.5234721363844L221.4952395212479 311.5234721363844Q227.2327828490717 325.0876130293422 232.73493978395913 339.0636801099386Q238.23709671884657 353.039747190535 243.65098375638286 367.339470561419Q249.03544749480213 381.6391939323029 254.5670277288066 396.8804628749322L254.5670277288066 396.8804628749322L251.38931142416573 396.8804628749322Q257.5093576405111 383.11035888815513 263.12920777186673 369.5756412943144Q268.74905790322236 356.0115004013566 274.1629449407587 342.1237032181113Q279.5474086791779 328.26532933398306 284.6376394264267 314.05387586045026L284.6376394264267 314.05387586045026Q288.6686314054619 302.1962863162811 287.07977325314147 295.7231605105311Q285.49091510082104 289.2794580038983 275.9577661868984 288.2202192356846L275.9577661868984 288.2202192356846Q275.31045360632345 285.89577860543807 275.10449051250407 283.3359515822551Q274.8985274186848 280.80554785818924 274.8985274186848 279.09899650940065L274.8985274186848 279.09899650940065Q278.07624372332566 279.30495960321997 280.930303737679 279.42265279968814Q283.7843637520324 279.54034599615636 286.756116962854 279.62861589350746Q289.72787017367557 279.7463090899756 292.9055864783164 279.7463090899756L292.9055864783164 279.7463090899756Q297.7604308326288 279.7463090899756 303.82163045074014 279.54034599615636Q309.85340676973436 279.30495960321997 314.50228803022753 279.09899650940065L314.50228803022753 279.09899650940065Q314.50228803022753 281.4234371396472 314.2963249364082 283.65960787254267Q314.0903618425889 285.89577860543807 313.44304926201386 288.2202192356846L313.44304926201386 288.2202192356846Q306.88165355891283 289.6913841915369 303.056624673697 296.1645099972868Q299.26101908759813 302.60821250391973 295.2300271085629 313.20060018605596L295.2300271085629 313.20060018605596Q284.6376394264267 340.5348450657909 273.51563236018364 368.07505303934505Q262.3936252939406 395.61526101289934 250.94796193741007 423.3614320802729L250.94796193741007 423.3614320802729Q248.8294844009828 423.80278156702855 247.03466315484306 424.00874466084787Q245.2398419087033 424.21470775466713 242.6800148855204 424.21470775466713ZM327.65450273554666 423.5968184732092L327.65450273554666 423.5968184732092Q327.65450273554666 421.478340936782 327.86046582936603 419.0362071100672Q328.0664289231853 416.59407328335254 328.7137415037603 414.4755957469252L328.7137415037603 414.4755957469252Q337.18765164946933 414.4755957469252 340.247674757642 410.56229696435827Q343.3076978658147 406.6489981817912 343.3076978658147 396.056610499655L343.3076978658147 396.056610499655L343.3076978658147 354.09898595874864Q343.3076978658147 349.0087552114998 342.36615229406925 345.74276900950787Q341.4246067223238 342.4473595083988 338.01150402474656 340.74080815961014Q334.6278246262864 339.0636801099386 327.4191163426103 339.0636801099386L327.4191163426103 339.0636801099386Q327.4191163426103 336.73923947969206 327.86046582936603 334.8267250370841Q328.2723920170047 332.9142105944762 329.3316307852183 331.2076592456876L329.3316307852183 331.2076592456876Q332.50934708985915 331.2076592456876 338.33516031503405 330.1484204774739Q344.160973540209 329.0891817092603 349.6631304750964 327.4120536595887Q355.19471070910095 325.7055023108001 357.72511443316677 324.02837426112853L357.72511443316677 324.02837426112853Q359.6376288757747 324.6462635425865 361.02052393427584 326.5587779851944Q362.37399569365994 328.4712924278024 362.37399569365994 332.50228440683753L362.37399569365994 332.50228440683753L362.37399569365994 396.056610499655Q362.37399569365994 406.6489981817912 365.25747900713037 410.56229696435827Q368.11153902148374 414.4755957469252 374.8788978184041 414.4755957469252L374.8788978184041 414.4755957469252Q375.52621039897906 416.59407328335254 375.73217349279844 419.35986340035475Q375.9381365866177 422.0962302182399 375.9381365866177 423.5968184732092L375.9381365866177 423.5968184732092Q372.3484940943382 423.3614320802729 368.317502115303 423.27316218292174Q364.28651013626785 423.1554689864535 360.16724825988155 423.0671990891024Q356.0185630843782 422.94950589263425 352.0169944044601 422.94950589263425L352.0169944044601 422.94950589263425Q347.98600242542483 422.94950589263425 343.6313541561022 423.0671990891024Q339.30612918589657 423.1554689864535 335.27513720686136 423.27316218292174Q331.24414522782615 423.3614320802729 327.65450273554666 423.5968184732092ZM351.16371873006574 300.07780877985385L351.16371873006574 300.07780877985385Q345.8675248889976 300.07780877985385 342.2484590976011 296.48816628757436Q338.65881660532153 292.8691004961778 338.65881660532153 287.77886974892897L338.65881660532153 287.77886974892897Q338.65881660532153 282.07074972022224 342.4838454905374 278.4811072279427Q346.27945107663624 274.8620414365462 351.16371873006574 274.8620414365462L351.16371873006574 274.8620414365462Q356.87183875877247 274.8620414365462 360.37321135370087 278.4811072279427Q363.87458394862927 282.07074972022224 363.87458394862927 287.77886974892897L363.87458394862927 287.77886974892897Q363.87458394862927 292.6631374023584 360.16724825988155 296.37047309110613Q356.4599125711338 300.07780877985385 351.16371873006574 300.07780877985385ZM436.96205895536923 424.86202033524216L436.96205895536923 424.86202033524216Q421.9267531065592 424.86202033524216 411.95225470588093 418.06523823920475Q402.00717960431973 411.29787944228434 397.0346420535391 399.76394618840266Q392.03268120364135 388.20058963540396 392.03268120364135 374.43048564862687L392.03268120364135 374.43048564862687Q392.03268120364135 360.86634475566905 397.3288750447095 349.45010469825553Q402.62506888577764 338.004441341725 412.48187408998774 331.00169615186826Q422.33867929419785 324.02837426112853 435.9028201871556 324.02837426112853L435.9028201871556 324.02837426112853Q449.67292417393276 324.02837426112853 458.02914112317353 329.9424573836546Q466.4147813715315 335.8859638052977 470.5340432479178 345.83103890685896Q474.6533051243041 355.8055373075373 475.50658079869834 367.8690899455258L475.50658079869834 367.8690899455258Q474.6533051243041 372.10604501838026 472.3288644940575 375.07779822920185L472.3288644940575 375.07779822920185Q468.739222001778 375.07779822920185 461.53051371810193 375.07779822920185Q454.32180543442587 375.07779822920185 445.2300060072589 375.16606812655294Q436.108783280975 375.2837613230211 426.5756343670523 375.6074176133086Q417.04248545312976 375.9310739035961 408.56857530742076 376.3430000912347L408.56857530742076 376.3430000912347L408.56857530742076 365.5446493152792L453.4685297600315 365.5446493152792Q453.4685297600315 351.56858223468276 448.40772231189976 342.85928569603743Q443.31749156465105 334.1794124565091 433.99030574454764 334.1794124565091L433.99030574454764 334.1794124565091Q428.90007499729893 334.1794124565091 424.04523064298644 337.26885886379887Q419.160962989557 340.32888197197155 415.98324668491614 348.0672096397544Q412.8055303802753 355.8055373075373 412.8055303802753 369.987567481953L412.8055303802753 369.987567481953Q412.8055303802753 380.37399207026994 415.45362730080933 390.23079727448004Q418.1017242213434 400.05817917957313 424.7808131209126 406.53130498532306Q431.4599020204819 413.004430791073 443.7294177522897 413.004430791073L443.7294177522897 413.004430791073Q450.7321629421464 413.004430791073 457.4995217390667 409.8267144864321Q464.29630383510414 406.6489981817912 469.59249767617234 400.7054917601481L469.59249767617234 400.7054917601481Q471.26962572584387 401.55876743454246 472.8584838781643 403.5595517745015Q474.4473420304847 405.5897594135776 474.6533051243041 407.2668874632492L474.6533051243041 407.2668874632492Q467.4740201397451 416.8000363771718 458.02914112317353 420.831028356207Q448.61368540571914 424.86202033524216 436.96205895536923 424.86202033524216Z "
            fill="#51cddb" transform="matrix(0.7765269453206984,0,0,0.7765269453206984,0,28.322687510742327)" />
        <path
            d="M611.019515783343 298.5948181054841L611.019515783343 365.6838872042577Q611.019515783343 376.7591871799478 609.9867001110068 385.30738497864513Q608.9538844386707 393.8555827773424 605.7895130170449 400.73369565907063Q602.6251415954191 407.6118085407988 596.5381215690974 413.4571057501908Q590.4511015427756 419.32437776112187 580.3207180332654 424.8620277489669L580.3207180332654 424.8620277489669Q579.221977956312 424.2247585043339 578.5847087116791 423.1260184273806Q577.9474394670461 422.0053035488881 577.6397922454992 420.7527398611613L577.6397922454992 420.7527398611613Q583.6389130656646 415.67656070563663 587.7482009534704 410.1389107177916Q591.879463642815 404.60126072994655 594.0110193921046 397.3276014205151Q596.1425751413942 390.05394211108376 596.1425751413942 380.077382212347L596.1425751413942 380.077382212347L596.1425751413942 298.5948181054841Q596.1425751413942 293.2109917284125 595.1976586752143 290.37624232987275Q594.2527422090343 287.51951812979394 591.879463642815 286.2669544420671Q589.5061850765958 284.9924159528012 585.2210987764776 284.8385923420277L585.2210987764776 284.8385923420277Q584.759627944157 283.5640538527618 584.5838295318446 281.82804453117546Q584.4300059210711 280.0920352095891 584.4300059210711 278.02640386491674L584.4300059210711 278.02640386491674Q586.8032844872904 278.18022747569023 589.9017315042989 278.26812668184647Q592.9782037197684 278.3560258880027 596.5381215690974 278.42195029261995Q600.0980394184264 278.50984949877625 603.5700580615991 278.50984949877625L603.5700580615991 278.50984949877625Q608.8000608278971 278.50984949877625 614.3377108157422 278.3560258880027Q619.8753608035872 278.18022747569023 622.732085003666 278.02640386491674L622.732085003666 278.02640386491674Q622.732085003666 280.0920352095891 622.5562865913535 281.82804453117546Q622.40246298058 283.5640538527618 621.9409921482596 284.8385923420277L621.9409921482596 284.8385923420277Q617.9855278712274 284.9924159528012 615.5243500988519 286.2669544420671Q613.0631723264762 287.51951812979394 612.0523314556792 290.37624232987275Q611.019515783343 293.2109917284125 611.019515783343 298.5948181054841L611.019515783343 298.5948181054841ZM683.470436457649 386.88957068945797L683.470436457649 386.88957068945797Q681.7344271360628 386.09847783405155 680.7016114637266 384.0328464893792Q679.6907705929294 381.98918994624586 679.6907705929294 377.5502800353542L679.6907705929294 377.5502800353542Q679.6907705929294 376.1219179353148 679.844594203703 374.14418579679875Q679.9984178144764 372.16645365828265 680.481863448336 370.58426794746975L680.481863448336 370.58426794746975L680.7895106698828 370.58426794746975Q680.3060650360234 373.11137012446255 678.6579549205933 376.0559935306976Q676.9878700036242 378.9786421353936 674.3069442158579 381.19809709083944L674.3069442158579 381.19809709083944Q671.6040436265525 383.57137565705875 667.4947557387469 385.06566216171535Q663.3854678509413 386.55994866637195 657.5401706415493 386.55994866637195L657.5401706415493 386.55994866637195Q647.5636107428126 386.55994866637195 642.3336079765145 382.0551143508631Q637.1255800117553 377.5502800353542 637.1255800117553 369.79317509206334L637.1255800117553 369.79317509206334Q637.1255800117553 363.6182558595853 640.0482286164514 359.26724515484995Q642.9708772211474 354.91623445011453 647.6515099489689 351.9935858454185Q652.3101678752512 349.0709372407225 657.7599186569399 347.3349279191362Q663.2316442401677 345.5989185975498 668.4396722049269 344.63202732983086Q673.6696749712249 343.68711086365096 677.6251392482571 343.04984161901797L677.6251392482571 343.04984161901797Q677.6251392482571 336.567275164993 677.3834164313274 332.94143291104683Q677.1416936143976 329.2936158555616 676.4384999651475 327.16206010627207Q675.7353063158973 325.0305043569825 674.3069442158579 323.44831864616964L674.3069442158579 323.44831864616964Q672.3951364819591 321.07504007995027 669.9559335111225 319.88840079684064Q667.4947557387469 318.701761513731 664.4842079278947 318.701761513731L664.4842079278947 318.701761513731Q659.2761799631356 318.701761513731 656.2656321522834 321.93205733997394Q653.255084341431 325.18432796775596 652.0025206537042 329.4474394663351Q650.7279821644382 333.7325257664533 650.5741585536648 337.0507207988525L650.5741585536648 337.0507207988525Q648.8381492320784 337.0507207988525 646.2231478489293 336.80899798192274Q643.6081464657804 336.567275164993 642.3336079765145 335.93000592036003L642.3336079765145 335.93000592036003Q642.6632299996004 331.9745416433279 642.509406388827 327.07416090011577Q642.3336079765145 322.17378015690366 641.542515121108 318.701761513731L641.542515121108 318.701761513731Q648.047056376672 315.3615916797927 655.2328164799471 313.4717587474329Q662.4405513847614 311.5819258150731 668.4396722049269 311.5819258150731L668.4396722049269 311.5819258150731Q674.3069442158579 311.5819258150731 678.5041313098199 313.23003593050316Q682.6793436022426 314.9001208474723 685.2284205807745 317.5810466352385L685.2284205807745 317.5810466352385Q689.3377084685802 321.5365109122707 690.590272156307 327.9531529616785Q691.864810645573 334.34782020954714 691.864810645573 344.9616493529169L691.864810645573 344.9616493529169L691.864810645573 362.3656921718585Q691.864810645573 366.7826272812111 692.5680042948231 369.3976286643601Q693.2931727456123 372.01263004750916 695.3368292887457 373.19926933061885Q697.4024606334181 374.3859086137285 701.6655721319971 374.6935558352754L701.6655721319971 374.6935558352754Q701.6655721319971 376.2757415460883 701.5117485212237 378.2534736846044Q701.3579249104502 380.2312058231205 700.7206556658172 381.98918994624586L700.7206556658172 381.98918994624586Q696.7651913887851 382.1430135570194 691.9527098517292 383.4834764509025Q687.1182535131344 384.82393934478563 683.470436457649 386.88957068945797ZM661.9571057509019 377.8579272569012L661.9571057509019 377.8579272569012Q665.4510991956136 377.8579272569012 669.0769414495599 375.5725478968381Q672.724758505045 373.2871685367751 675.1639614758816 368.36481299202393Q677.6251392482571 363.4644322488119 677.6251392482571 355.55350369474746L677.6251392482571 355.55350369474746L677.6251392482571 349.554382874582Q673.6696749712249 350.0158537069024 669.2307650603333 350.89484576846513Q664.8138299509807 351.75186302848874 661.0121892847219 353.50984715161417Q657.2105486184632 355.24585647320055 654.8372700522439 358.32232868867Q652.4639914860246 361.4207757056785 652.4639914860246 366.6288036704376L652.4639914860246 366.6288036704376Q652.4639914860246 372.49607568136867 655.3207156861034 375.1770014691349Q658.1554650846431 377.8579272569012 661.9571057509019 377.8579272569012ZM746.450217668617 386.88957068945797L746.450217668617 386.88957068945797Q745.1756791793512 383.72519926783224 742.5826525977411 377.6381792415105Q739.9676512145921 371.52918441364966 736.71538058681 364.1017014934448Q733.4850847605671 356.6742185732399 730.2328141327852 349.4664836684257Q726.9805435050031 342.25874876361155 724.5413405341666 336.80899798192274Q722.080162761791 331.359247200234 721.1352462956111 329.2936158555616L721.1352462956111 329.2936158555616Q719.0696149509387 325.0305043569825 717.6632276524384 323.0527722184664Q716.234865552399 321.07504007995027 714.8944026585159 320.28394722454385Q713.5319649630936 319.49285436913743 711.334484809187 319.3170559568249L711.334484809187 319.3170559568249Q710.697215564554 317.2733994136916 710.5433919537804 315.9988609244257Q710.367593541468 314.7462972366988 710.367593541468 312.526842281253L710.367593541468 312.526842281253Q713.7077633754062 312.68066589202647 717.8829756678291 312.83448950279995Q722.080162761791 312.9883131135734 726.9805435050031 312.9883131135734L726.9805435050031 312.9883131135734Q730.3207133389413 312.9883131135734 733.8806311882703 312.9223887089562Q737.4405490375993 312.83448950279995 740.6708448638423 312.7685650981827Q743.9231154916242 312.68066589202647 746.450217668617 312.526842281253L746.450217668617 312.526842281253Q746.450217668617 314.2628516028393 746.1425704470702 315.9329365198085Q745.812948423984 317.5810466352385 745.3514775916636 319.00940873527793L745.3514775916636 319.00940873527793Q737.4405490375993 319.6466779799109 736.0121869375599 321.5365109122707Q734.5838248375205 323.44831864616964 737.5943726483728 329.9308851001946L737.5943726483728 329.9308851001946Q738.6931127253262 332.3041636664139 740.7587440699986 337.1166452034697Q742.8024006131318 341.9511015420646 745.3514775916636 348.1260207745426Q747.8785797686564 354.30094000702064 750.4056819456492 360.5417836441158Q752.932784122642 366.7826272812111 754.8445918565409 371.8588064367357L754.8445918565409 371.8588064367357L753.0866077334155 371.8588064367357Q757.2178704227603 361.574599316452 760.5360654551595 353.33404873930164Q763.8542604875587 345.11547296369037 766.7109846876375 337.9956372650324L766.7109846876375 337.9956372650324Q770.8202725754431 327.71143014474876 769.150187658474 323.6680666615603Q767.5020775430439 319.6466779799109 761.4809819213393 319.1632323460514L761.4809819213393 319.1632323460514Q760.6898890659329 317.5810466352385 760.2064434320733 315.8450373136522Q759.744972599753 314.1090279920658 759.744972599753 312.526842281253L759.744972599753 312.526842281253Q762.9093440213787 312.68066589202647 766.8648082984109 312.83448950279995Q770.8202725754431 312.9883131135734 774.4461148293892 312.9883131135734L774.4461148293892 312.9883131135734Q778.0939318848745 312.9883131135734 782.2032197726802 312.83448950279995Q786.3125076604858 312.68066589202647 789.1692318605647 312.526842281253L789.1692318605647 312.526842281253Q789.1692318605647 314.5704988243863 788.8615846390177 316.2405837413554Q788.5319626159317 317.91066865832454 787.7408697605252 319.3170559568249L787.7408697605252 319.3170559568249Q785.2137675835324 319.8005015906844 783.3239346511726 321.5365109122707Q781.4121269172738 323.27252023385705 779.5882183895311 326.76651367856886Q777.7862846633276 330.2385323217415 775.0833840740222 336.567275164993L775.0833840740222 336.567275164993L753.7238769780485 385.4612085894186Q752.295514878009 386.09847783405155 750.3177827394929 386.49402426175476Q748.340050600977 386.88957068945797 746.450217668617 386.88957068945797ZM845.8202702282811 386.88957068945797L845.8202702282811 386.88957068945797Q844.0622861051556 386.09847783405155 843.0514452343585 384.0328464893792Q842.0186295620223 381.98918994624586 842.0186295620223 377.5502800353542L842.0186295620223 377.5502800353542Q842.0186295620223 376.1219179353148 842.1724531727958 374.14418579679875Q842.3262767835694 372.16645365828265 842.8097224174288 370.58426794746975L842.8097224174288 370.58426794746975L843.1173696389757 370.58426794746975Q842.6558988066553 373.11137012446255 840.9858138896863 376.0559935306976Q839.315728972717 378.9786421353936 836.6348031849508 381.19809709083944L836.6348031849508 381.19809709083944Q833.9538773971846 383.57137565705875 829.8226147078398 385.06566216171535Q825.7133268200341 386.55994866637195 819.8680296106421 386.55994866637195L819.8680296106421 386.55994866637195Q809.8914697119054 386.55994866637195 804.6834417471464 382.0551143508631Q799.4534389808483 377.5502800353542 799.4534389808483 369.79317509206334L799.4534389808483 369.79317509206334Q799.4534389808483 363.6182558595853 802.3760875855443 359.26724515484995Q805.2987361902402 354.91623445011453 809.9793689180617 351.9935858454185Q814.638026844344 349.0709372407225 820.1097524275718 347.3349279191362Q825.5595032092607 345.5989185975498 830.7895059755588 344.63202732983086Q835.9975339403178 343.68711086365096 839.95299821735 343.04984161901797L839.95299821735 343.04984161901797Q839.95299821735 336.567275164993 839.7112754004203 332.94143291104683Q839.4915273850296 329.2936158555616 838.7663589342403 327.16206010627207Q838.0631652849902 325.0305043569825 836.6348031849508 323.44831864616964L836.6348031849508 323.44831864616964Q834.744970252591 321.07504007995027 832.2837924802153 319.88840079684064Q829.8226147078398 318.701761513731 826.8340416985267 318.701761513731L826.8340416985267 318.701761513731Q821.6040389322285 318.701761513731 818.5934911213762 321.93205733997394Q815.582943310524 325.18432796775596 814.3303796227971 329.4474394663351Q813.0558411335311 333.7325257664533 812.9020175227577 337.0507207988525L812.9020175227577 337.0507207988525Q811.1660082011714 337.0507207988525 808.5510068180223 336.80899798192274Q805.9360054348732 336.567275164993 804.6834417471464 335.93000592036003L804.6834417471464 335.93000592036003Q804.9910889686934 331.9745416433279 804.8372653579198 327.07416090011577Q804.6834417471464 322.17378015690366 803.89234889174 318.701761513731L803.89234889174 318.701761513731Q810.3749153457649 315.3615916797927 817.5606754490401 313.4717587474329Q824.7684103538543 311.5819258150731 830.7895059755588 311.5819258150731L830.7895059755588 311.5819258150731Q836.6348031849508 311.5819258150731 840.8319902789127 313.23003593050316Q845.0291773728746 314.9001208474723 847.5562795498673 317.5810466352385L847.5562795498673 317.5810466352385Q851.6655674376731 321.5365109122707 852.940105926939 327.9531529616785Q854.1926696146659 334.34782020954714 854.1926696146659 344.9616493529169L854.1926696146659 344.9616493529169L854.1926696146659 362.3656921718585Q854.1926696146659 366.7826272812111 854.9178380654552 369.3976286643601Q855.6210317147053 372.01263004750916 857.6866630593776 373.19926933061885Q859.7303196025109 374.3859086137285 864.0154059026291 374.6935558352754L864.0154059026291 374.6935558352754Q864.0154059026291 376.2757415460883 863.8396074903166 378.2534736846044Q863.685783879543 380.2312058231205 863.04851463491 381.98918994624586L863.04851463491 381.98918994624586Q859.093050357878 382.1430135570194 854.2805688208222 383.4834764509025Q849.4461124822272 384.82393934478563 845.8202702282811 386.88957068945797ZM824.2849647199947 377.8579272569012L824.2849647199947 377.8579272569012Q827.7789581647065 377.8579272569012 831.4048004186527 375.5725478968381Q835.052617474138 373.2871685367751 837.5137952465135 368.36481299202393Q839.95299821735 363.4644322488119 839.95299821735 355.55350369474746L839.95299821735 355.55350369474746L839.95299821735 349.554382874582Q835.9975339403178 350.0158537069024 831.5805988309652 350.89484576846513Q827.1416889200735 351.75186302848874 823.3400482538149 353.50984715161417Q819.5384075875562 355.24585647320055 817.1651290213368 358.32232868867Q814.7918504551175 361.4207757056785 814.7918504551175 366.6288036704376L814.7918504551175 366.6288036704376Q814.7918504551175 372.49607568136867 817.6485746551963 375.1770014691349Q820.5052988552751 377.8579272569012 824.2849647199947 377.8579272569012ZM952.9254529296969 386.40612505559847L952.9254529296969 386.40612505559847Q947.2339793310783 371.06771358132926 941.4546065263036 356.10287373322416Q935.6752337215288 341.16000868665816 930.2914073444572 327.5576065339753Q924.9295557689246 313.9552043812924 920.1829986364861 303.03372801637573L920.1829986364861 303.03372801637573Q916.8428288025478 295.27662307308486 914.9529958701879 291.47498240682614Q913.0631629378282 287.6733417405674 911.3051788147028 286.42077805284055Q909.5691694931164 285.1462395635747 906.7344200945766 284.8385923420277L906.7344200945766 284.8385923420277Q906.2509744607172 282.92678460812886 906.0971508499437 281.1248508819253Q905.9433272391702 279.30094235418267 905.9433272391702 278.02640386491674L905.9433272391702 278.02640386491674Q907.5255129499832 278.18022747569023 909.7229931038898 278.26812668184647Q911.9424480593357 278.3560258880027 914.5574494424848 278.42195029261995Q917.1724508256337 278.50984949877625 919.8533766134 278.50984949877625Q922.5562772027055 278.50984949877625 925.0833793796982 278.50984949877625L925.0833793796982 278.50984949877625Q930.1375837336838 278.50984949877625 934.9720400722787 278.3560258880027Q939.7845216093344 278.18022747569023 944.2234315202261 278.02640386491674L944.2234315202261 278.02640386491674Q944.2234315202261 279.4547659649561 943.9817087032964 281.27867449269877Q943.7399858863665 283.10258302044133 943.4323386648197 284.8385923420277L943.4323386648197 284.8385923420277Q938.2023358985216 285.1462395635747 935.6752337215288 286.4867024574578Q933.148131544536 287.84914015287995 933.5436779722393 291.40905800220895Q933.9392243999424 294.9689758515379 937.1035958215682 302.2426351609693L937.1035958215682 302.2426351609693Q941.3667073201474 312.3730186704795 945.4979700094921 322.81104940153665Q949.6072578972977 333.2490801325938 953.628646578947 343.9288336805807Q957.6720100621354 354.60858722856756 961.7812979499412 365.9915344258046L961.7812979499412 365.9915344258046L959.4080193837218 365.9915344258046Q964.000752905387 355.70732730552095 968.1979399993489 345.5989185975498Q972.3951270933109 335.46853508803963 976.4165157749602 325.09642876159967Q980.4598792581487 314.7462972366988 984.2615199244075 304.1324680933291L984.2615199244075 304.1324680933291Q987.2500929337206 295.27662307308486 986.063453650611 290.44216673448994Q984.8768143675013 285.6296851974341 977.7569786688433 284.8385923420277L977.7569786688433 284.8385923420277Q977.2955078365229 283.10258302044133 977.1416842257495 281.1907752865425Q976.965885813437 279.30094235418267 976.965885813437 278.02640386491674L976.965885813437 278.02640386491674Q979.3391643796563 278.18022747569023 981.4926949304848 278.26812668184647Q983.6242506797745 278.3560258880027 985.8437056352203 278.42195029261995Q988.0411857891271 278.50984949877625 990.4144643553464 278.50984949877625L990.4144643553464 278.50984949877625Q994.0622814108316 278.50984949877625 998.5671157263405 278.3560258880027Q1003.0719500418494 278.18022747569023 1006.5659434865612 278.02640386491674L1006.5659434865612 278.02640386491674Q1006.5659434865612 279.76241318650307 1006.4121198757877 281.4324981034722Q1006.2363214634751 283.10258302044133 1005.7748506311547 284.8385923420277L1005.7748506311547 284.8385923420277Q1000.8744698879426 285.9373324189811 998.0177456878638 290.77178875757596Q995.161021487785 295.5842702946318 992.1724484784718 303.4951988486962L992.1724484784718 303.4951988486962Q984.2615199244075 323.90978947849004 975.9550449426398 344.4782037190574Q967.6485699608721 365.0466179596247 959.100372162175 385.76885581096553L959.100372162175 385.76885581096553Q957.5181864513621 386.09847783405155 956.177723557479 386.25230144482504Q954.8152858620568 386.40612505559847 952.9254529296969 386.40612505559847ZM1016.3667049729853 385.94465422327806L1016.3667049729853 385.94465422327806Q1016.3667049729853 384.3624685124652 1016.5205285837587 382.53855998472255Q1016.6963269960713 380.71465145698 1017.1577978283916 379.1324657461671L1017.1577978283916 379.1324657461671Q1023.4865406716432 379.1324657461671 1025.7938948332453 376.2098171414711Q1028.0792741933083 373.2871685367751 1028.0792741933083 365.37623998271073L1028.0792741933083 365.37623998271073L1028.0792741933083 334.0401729880002Q1028.0792741933083 330.2385323217415 1027.3760805440584 327.799329350905Q1026.650912093269 325.33815157852945 1024.123809916276 324.0636130892635Q1021.5967077392834 322.81104940153665 1016.2128813622118 322.81104940153665L1016.2128813622118 322.81104940153665Q1016.2128813622118 321.07504007995027 1016.5205285837587 319.6466779799109Q1016.8501506068447 318.2183158798715 1017.6412434622512 316.9437773906056L1017.6412434622512 316.9437773906056Q1020.0145220284705 316.9437773906056 1024.3655327332058 316.15268453519917Q1028.7165434379413 315.3615916797927 1032.825831325747 314.1090279920658Q1036.9351192135528 312.83448950279995 1038.8469269474515 311.5819258150731L1038.8469269474515 311.5819258150731Q1040.253314245952 312.0433966473935 1041.286129918288 313.4717587474329Q1042.318945590624 314.9001208474723 1042.318945590624 317.91066865832454L1042.318945590624 317.91066865832454L1042.318945590624 365.37623998271073Q1042.318945590624 373.2871685367751 1044.450501339914 376.2098171414711Q1046.5820570892033 379.1324657461671 1051.658236244728 379.1324657461671L1051.658236244728 379.1324657461671Q1052.1197070770481 380.71465145698 1052.295505489361 382.78028280165233Q1052.4493291001345 384.82393934478563 1052.4493291001345 385.94465422327806L1052.4493291001345 385.94465422327806Q1049.746428510829 385.76885581096553 1046.7578555015157 385.70293140634834Q1043.7473076906635 385.61503220019205 1040.6488606736552 385.54910779557486Q1037.5723884581857 385.4612085894186 1034.5618406473332 385.4612085894186L1034.5618406473332 385.4612085894186Q1031.551292836481 385.4612085894186 1028.320997010238 385.54910779557486Q1025.0687263824561 385.61503220019205 1022.0581785716039 385.70293140634834Q1019.0696055622906 385.76885581096553 1016.3667049729853 385.94465422327806ZM1033.9245714027004 293.69443736227197L1033.9245714027004 293.69443736227197Q1029.969107125668 293.69443736227197 1027.2881813379017 291.01351157450574Q1024.6072555501355 288.3106109852004 1024.6072555501355 284.5089703189417L1024.6072555501355 284.5089703189417Q1024.6072555501355 280.24585882036257 1027.4420049486753 277.5649330325963Q1030.2987291487543 274.862032443291 1033.9245714027004 274.862032443291L1033.9245714027004 274.862032443291Q1038.2096577028187 274.862032443291 1040.8246590859676 277.5649330325963Q1043.4176856675776 280.24585882036257 1043.4176856675776 284.5089703189417L1043.4176856675776 284.5089703189417Q1043.4176856675776 288.1567873744269 1040.6488606736552 290.92561236834945Q1037.8800356797324 293.69443736227197 1033.9245714027004 293.69443736227197ZM1098.0030926906218 386.88957068945797L1098.0030926906218 386.88957068945797Q1086.773969104158 386.88957068945797 1079.3464861839534 381.8133915339334Q1071.8970284622092 376.7591871799478 1068.1832870021067 368.14506497663325Q1064.4695455420042 359.50896797177967 1064.4695455420042 349.224760851496L1064.4695455420042 349.224760851496Q1064.4695455420042 339.09437734198576 1068.4250098190364 330.5681543448275Q1072.3804740960688 322.01995654613023 1079.7420326116564 316.7899537798321Q1087.1035911272443 311.5819258150731 1097.2119998352152 311.5819258150731L1097.2119998352152 311.5819258150731Q1107.496206955499 311.5819258150731 1113.7590253941332 315.9988609244257Q1119.9998690312284 320.43777083531734 1123.098316048237 327.8652537555222Q1126.1747882637064 335.31471147726614 1126.8120575083394 344.3243801082839L1126.8120575083394 344.3243801082839Q1126.1747882637064 347.4887515299096 1124.4387789421203 349.7082064853555L1124.4387789421203 349.7082064853555Q1121.7358783528148 349.7082064853555 1116.3740267772823 349.7082064853555Q1110.9902004002106 349.7082064853555 1104.1780119230998 349.7741308899727Q1097.3877982475278 349.86203009612893 1090.26796254887 350.1037529130587Q1083.148126850212 350.34547572998844 1076.8193840069603 350.6531229515354L1076.8193840069603 350.6531229515354L1076.8193840069603 342.58837078669757L1110.3529311555776 342.58837078669757Q1110.3529311555776 332.1503400556404 1106.551290489319 325.64579880007636Q1102.7496498230603 319.1632323460514 1095.8056125367148 319.1632323460514L1095.8056125367148 319.1632323460514Q1092.003971870456 319.1632323460514 1088.356154814971 321.47058650765354Q1084.7303125610247 323.75596586771655 1082.3570339948055 329.5353386724914Q1079.9837554285862 335.31471147726614 1079.9837554285862 345.9065658190968L1079.9837554285862 345.9065658190968Q1079.9837554285862 353.66367076238765 1081.9614875671023 361.0252292779753Q1083.9392197056184 368.36481299202393 1088.9055248534478 373.19926933061885Q1093.893804802816 378.0337256692137 1103.0792718461462 378.0337256692137L1103.0792718461462 378.0337256692137Q1108.2872998109053 378.0337256692137 1113.36347896643 375.6604471029944Q1118.4176833204156 373.2871685367751 1122.3731475974478 368.84825862588343L1122.3731475974478 368.84825862588343Q1123.6476860867137 369.48552787051636 1124.834325369823 370.97981437517296Q1126.020964652933 372.49607568136867 1126.1747882637064 373.74863936909554L1126.1747882637064 373.74863936909554Q1120.7909618866347 380.8684750677534 1113.7590253941332 383.8790228786057Q1106.7051141000925 386.88957068945797 1098.0030926906218 386.88957068945797Z "
            fill="#292826" transform="matrix(0.7765269453206984,0,0,0.7765269453206984,0,28.322687510742327)" />
    </g>
</svg>